<svg style="position: absolute; width: 0; height: 0; overflow: hidden;" version="1.1" xmlns="http://www.w3.org/2000/svg" xmlns:xlink="http://www.w3.org/1999/xlink">
<defs>
<symbol id="icon-th-menu" viewBox="0 0 24 24">
<title>th-menu</title>
<path class="path1" d="M19 17h-14c-1.103 0-2 0.897-2 2s0.897 2 2 2h14c1.103 0 2-0.897 2-2s-0.897-2-2-2z"></path>
<path class="path2" d="M19 10h-14c-1.103 0-2 0.897-2 2s0.897 2 2 2h14c1.103 0 2-0.897 2-2s-0.897-2-2-2z"></path>
<path class="path3" d="M19 3h-14c-1.103 0-2 0.897-2 2s0.897 2 2 2h14c1.103 0 2-0.897 2-2s-0.897-2-2-2z"></path>
</symbol>
</defs>
</svg>
